<?xml version="1.0" encoding="UTF-8" standalone="no"?>
<!-- Created with Inkscape (http://www.inkscape.org/) -->

<svg
   fill="#000000"
   version="1.1"
   id="Capa_1"
   width="512"
   height="512"
   viewBox="0 0 79.36 79.36"
   xml:space="preserve"
   sodipodi:docname="Configuration.svg"
   inkscape:version="1.4 (e7c3feb100, 2024-10-09)"
   xmlns:inkscape="http://www.inkscape.org/namespaces/inkscape"
   xmlns:sodipodi="http://sodipodi.sourceforge.net/DTD/sodipodi-0.dtd"
   xmlns="http://www.w3.org/2000/svg"
   xmlns:svg="http://www.w3.org/2000/svg"><defs
   id="defs1" /><sodipodi:namedview
   id="namedview1"
   pagecolor="#505050"
   bordercolor="#eeeeee"
   borderopacity="1"
   inkscape:showpageshadow="0"
   inkscape:pageopacity="0"
   inkscape:pagecheckerboard="0"
   inkscape:deskcolor="#505050"
   inkscape:zoom="0.5"
   inkscape:cx="258"
   inkscape:cy="747"
   inkscape:window-width="2560"
   inkscape:window-height="1412"
   inkscape:window-x="0"
   inkscape:window-y="0"
   inkscape:window-maximized="1"
   inkscape:current-layer="Capa_1" />
<g
   id="g1"
   transform="matrix(1.6110599,0,0,1.6221198,-60.205715,-60.891429)"
   style="fill:#ffffff;fill-opacity:1;stroke-width:0.95881405;stroke-dasharray:none">
	<path
   d="m 41.064714,56.081818 h -1.310938 c -1.310938,0 -2.383524,1.144182 -2.383524,2.446182 v 7.101818 c 0,1.341455 1.072586,2.288364 2.383524,2.288364 h 1.350663 c 2.145172,0 3.45611,3.116909 1.90682,4.655636 l -0.873959,0.868 c -0.95341,0.907455 -0.95341,2.446182 0,3.353637 l 5.0054,5.010727 c 0.913684,0.907454 2.42325,0.907454 3.376659,0 l 1.46984,-1.459818 c 1.509565,-1.499273 4.051991,-0.434 4.051991,1.696545 v 2.130546 c 0,1.302 1.072586,2.288363 2.383524,2.288363 h 7.150572 c 1.310938,0 2.383524,-0.946909 2.383524,-2.288363 v -2.130546 c 0,-2.091091 2.582151,-3.156364 4.051991,-1.657091 l 1.46984,1.459818 c 0.913684,0.907455 2.423249,0.907455 3.376659,0 l 5.0054,-4.971272 c 0.95341,-0.946909 0.913684,-2.446182 0,-3.353637 l -0.873959,-0.907454 c -1.54929,-1.499273 -0.238352,-4.655637 1.90682,-4.655637 h 1.350663 c 1.310938,0 2.383524,-0.946514 2.383524,-2.288363 v -7.101818 c 0,-1.302 -1.072586,-2.446182 -2.383524,-2.446182 h -1.310938 c -2.145172,0 -3.495835,-3.195818 -1.98627,-4.695091 l 0.953012,-0.907455 c 0.914082,-0.907454 0.914082,-2.406727 0,-3.314182 l -5.005003,-4.971272 c -0.953409,-0.946909 -2.462975,-0.907455 -3.376659,0 l -0.953409,0.828545 C 71.057391,44.600545 67.95881,43.338 67.95881,41.168 v -1.183636 c 0,-1.302 -1.072586,-2.446182 -2.383524,-2.446182 h -7.150572 c -1.310938,0 -2.383524,1.144182 -2.383524,2.446182 V 41.168 c 0,2.17 -3.098581,3.432545 -4.608147,1.893818 l -0.913684,-0.907454 c -0.913684,-0.946909 -2.462975,-0.946909 -3.376659,0 l -5.045126,5.010727 c -0.913684,0.907454 -0.913684,2.406727 0,3.353636 l 0.95341,0.868 c 1.509565,1.499273 0.158902,4.695091 -1.98627,4.695091 z m 21.014737,-3.472 c 5.283478,0 9.534096,4.221637 9.534096,9.469091 0,5.247455 -4.250618,9.469091 -9.534096,9.469091 -5.283478,0 -9.534096,-4.221636 -9.534096,-9.469091 0,-5.247454 4.290343,-9.469091 9.534096,-9.469091 z"
   id="path1"
   style="stroke-width:0.95881405;fill:#ffffff;fill-opacity:1;stroke-dasharray:none" />
</g>
</svg>
